<svg xmlns="http://www.w3.org/2000/svg"
     width="25.4001mm" height="18.8807mm"
     viewBox="0 0 300 223" fill="#fff">
  <path
        d="M 64.00,113.00
           C 64.00,113.00 64.00,111.00 64.00,111.00
             64.00,111.00 104.00,84.67 104.00,84.67
             111.07,79.90 127.59,70.30 131.90,63.99
             136.31,57.51 136.99,52.58 137.00,45.00
             137.02,29.01 139.77,12.76 123.00,3.65
             119.98,2.01 117.35,1.31 114.00,0.76
             99.33,-1.62 84.61,12.22 73.00,20.00
             73.00,20.00 35.00,45.33 35.00,45.33
             26.87,50.75 17.73,56.21 11.68,64.00
             3.37,74.69 0.16,87.64 0.00,101.00
             -0.21,119.53 -1.53,141.20 9.79,157.00
             15.82,165.42 22.01,169.01 30.00,174.74
             30.00,174.74 68.00,200.34 68.00,200.34
             75.03,205.13 93.99,218.54 101.00,220.90
             113.85,225.21 129.44,217.88 133.89,205.00
             135.02,201.74 134.98,199.37 135.00,196.00
             135.00,196.00 135.00,173.00 135.00,173.00
             134.81,157.89 125.25,152.84 114.00,145.33
             114.00,145.33 84.00,125.33 84.00,125.33
             78.36,121.58 70.01,115.30 64.00,113.00 Z
           M 236.00,110.00
           C 236.00,110.00 188.00,143.00 188.00,143.00
             172.90,153.07 163.03,156.90 163.00,177.00
             163.00,177.00 163.00,193.00 163.00,193.00
             163.01,197.95 163.02,201.28 164.93,206.00
             166.36,209.54 168.24,212.22 171.04,214.82
             178.94,222.15 191.17,224.30 201.00,219.67
             205.09,217.75 210.09,213.95 214.00,211.33
             214.00,211.33 232.00,199.33 232.00,199.33
             232.00,199.33 266.00,176.67 266.00,176.67
             274.84,170.76 284.94,163.96 290.90,155.00
             297.71,144.76 299.85,132.09 300.00,120.00
             300.17,105.23 300.85,86.49 294.51,73.00
             287.56,58.20 276.96,52.30 264.00,43.67
             264.00,43.67 234.00,23.35 234.00,23.35
             234.00,23.35 217.00,12.33 217.00,12.33
             205.91,4.86 197.25,-2.92 183.00,1.75
             178.80,3.13 175.27,4.98 172.09,8.10
             169.30,10.85 166.97,14.24 165.79,18.00
             164.54,21.99 164.02,27.80 164.00,32.00
             164.00,32.00 164.00,44.00 164.00,44.00
             164.07,49.49 165.08,57.30 167.99,62.00
             171.66,67.92 177.45,71.20 183.00,75.02
             183.00,75.02 206.00,90.67 206.00,90.67
             206.00,90.67 236.00,110.00 236.00,110.00 Z" />
</svg>
